<?xml version="1.0" encoding="utf-8"?>
<svg xmlns="http://www.w3.org/2000/svg" viewBox="10.4226 10.6992 478.7534 476.6542" width="478.753px" height="476.654px" preserveAspectRatio="none"><g id="object-0" transform="matrix(0.9999999999999999, 0, 0, 0.9999999999999999, 0, 0)"><circle style="fill: none; stroke-width: 6.44532px; stroke: rgb(255, 255, 255);" transform="matrix(1.39943, 0, 0, 1.393294, -150.388684, -202.963863)" cx="285.965" cy="324.404" r="171.053"/><circle style="fill: none; stroke-width: 7.98104px; stroke: rgb(255, 255, 255);" transform="matrix(1.009501, 0, 0, 1.002376, -38.35781, -75.098875)" cx="285.965" cy="324.404" r="221.003"/><circle style="fill: none; stroke-width: 7.98104px; stroke: rgb(255, 255, 255);" transform="matrix(1, 0, 0, 1.000001, -35.115916, -73.278487)" cx="285.965" cy="324.404" r="206.829"/><circle style="fill: none; stroke-width: 7.98104px; stroke: rgb(255, 255, 255);" transform="matrix(1, 0, 0, 1.000001, -34.065906, -73.27838)" cx="285.965" cy="324.404" r="190.031"/><circle style="fill: none; stroke-width: 7.98104px; stroke: rgb(255, 255, 255);" transform="matrix(0.917127, 0, 0, 0.914365, -11.417026, -46.022784)" cx="285.965" cy="324.404" r="190.031"/><circle style="fill: none; stroke-width: 7.98104px; stroke: rgb(255, 255, 255);" transform="matrix(0.834254, 0, 0, 0.837017, 14.381566, -21.980669)" cx="285.965" cy="324.404" r="190.031"/><circle style="fill: none; stroke-width: 7.98104px; stroke: rgb(255, 255, 255);" transform="matrix(0.754143, 0, 0, 0.76243, 37.81533, 3.790129)" cx="285.965" cy="324.404" r="190.031"/></g></svg>